<?xml version="1.0" encoding="UTF-8" standalone="no"?>
<svg xmlns:dc="http://purl.org/dc/elements/1.1/" xmlns:cc="http://creativecommons.org/ns#" xmlns:rdf="http://www.w3.org/1999/02/22-rdf-syntax-ns#" xmlns:svg="http://www.w3.org/2000/svg" xmlns="http://www.w3.org/2000/svg" xmlns:sodipodi="http://sodipodi.sourceforge.net/DTD/sodipodi-0.dtd" xmlns:inkscape="http://www.inkscape.org/namespaces/inkscape" version="1.1" x="0px" y="0px" viewBox="0 0 100 100" enable-background="new 0 0 100 100" xml:space="preserve" id="svg2" inkscape:version="0.48.4 r9939" width="100%" height="100%" sodipodi:docname="noun_425378_cc.svg"><metadata id="metadata24"><rdf:RDF><cc:Work rdf:about=""><dc:format>image/svg+xml</dc:format><dc:type rdf:resource="http://purl.org/dc/dcmitype/StillImage"/><dc:title/></cc:Work></rdf:RDF></metadata><defs id="defs22"/><sodipodi:namedview pagecolor="#ffffff" bordercolor="#666666" borderopacity="1" objecttolerance="10" gridtolerance="10" guidetolerance="10" inkscape:pageopacity="0" inkscape:pageshadow="2" inkscape:window-width="1600" inkscape:window-height="848" id="namedview20" showgrid="false" inkscape:zoom="1.888" inkscape:cx="-13.294492" inkscape:cy="62.5" inkscape:window-x="-8" inkscape:window-y="-8" inkscape:window-maximized="1" inkscape:current-layer="svg2"/><g id="g4" transform="translate(0,-0.25)"><path d="M 20,87 H 80 V 37 H 20 v 50 z m 2,-12 h 9 V 85 H 22 V 75 z M 55,63 V 73 H 45 V 63 H 55 z M 45,61 V 51 H 55 V 61 H 45 z M 43,73 H 33 V 63 h 10 v 10 z m 0,2 V 85 H 33 V 75 h 10 z m 2,0 H 55 V 85 H 45 V 75 z m 12,0 H 67 V 85 H 57 V 75 z m 0,-2 V 63 H 67 V 73 H 57 z M 69,63 h 9 V 73 H 69 V 63 z m 0,-2 V 51 h 9 v 10 h -9 z m -2,0 H 57 V 51 H 67 V 61 z M 57,49 V 39 H 67 V 49 H 57 z m -2,0 H 45 V 39 H 55 V 49 z M 43,49 H 33 V 39 h 10 v 10 z m 0,2 V 61 H 33 V 51 H 43 z M 31,61 H 22 V 51 h 9 v 10 z m 0,2 V 73 H 22 V 63 h 9 z M 69,85 V 75 h 9 V 85 H 69 z M 78,49 H 69 V 39 h 9 V 49 z M 31,39 V 49 H 22 V 39 h 9 z" id="path6" inkscape:connector-curvature="0" style="fill:#000000"/><path d="m 72,22 h -2 v -6.5 c 0,-1.104 -0.896,-2 -2,-2 -1.104,0 -2,0.896 -2,2 V 22 H 34 v -6.5 c 0,-1.104 -0.896,-2 -2,-2 -1.104,0 -2,0.896 -2,2 V 22 h -2 c -4.418,0 -8,3.082 -8,7.5 V 34 H 80 V 29.5 C 80,25.082 76.418,22 72,22 z m -40.002,9.5 c -2.21,0 -4,-1.79 -4,-4 0,-1.479 0.811,-2.754 2.002,-3.447 V 27.5 c 0,1.104 0.896,2 2,2 1.104,0 2,-0.896 2,-2 v -3.444 c 1.189,0.693 1.998,1.968 1.998,3.444 0,2.21 -1.79,4 -4,4 z m 36,0 c -2.21,0 -4,-1.79 -4,-4 0,-1.479 0.811,-2.754 2.002,-3.447 V 27.5 c 0,1.104 0.896,2 2,2 1.104,0 2,-0.896 2,-2 v -3.444 c 1.189,0.693 1.998,1.968 1.998,3.444 0,2.21 -1.79,4 -4,4 z" id="path8" inkscape:connector-curvature="0" style="fill:#000000"/><rect x="35" y="41" width="6" height="6" id="rect10" style="fill:#000000"/><rect x="59" y="65" width="6" height="6" id="rect12" style="fill:#000000"/><rect x="47" y="65" width="6" height="6" id="rect14" style="fill:#000000"/></g></svg>